# xmcd CD database file
#
# Track frame offsets:
#	150
#	23170
#	49932
#	82286
#	104538
#	126482
#	151815
#	187083
#	211425
#	239370
#
# Disc length: 3499 seconds
#
# Revision: 0
# Processed by: cddbd v1.5.2PL0 Copyright (c) Steve Scherf et al.
# Submitted via: CDex 1.70beta3
#
DISCID=910da90a
DTITLE=赤松敏弘 - ストリーム・オブ・ライフ
DYEAR=2008
DGENRE=Jazz
TTITLE0=クロッシング・ディパーチャー
TTITLE1=チャンネル・オクトーバー
TTITLE2=ザ・フェロー・トラベラー
TTITLE3=ディセンバー
TTITLE4=ミスティカル・インサイツ
TTITLE5=カム・レイン・オア・カム・シャイン
TTITLE6=ジャンプ・ジャイヴ
TTITLE7=ウィンター・ラヴ
TTITLE8=マイ・マンズ・ゴーン・ナウ
TTITLE9=アイ・ラヴズ・ユー・ポギー
EXTD=YEAR: 2008
EXTT0=
EXTT1=
EXTT2=
EXTT3=
EXTT4=
EXTT5=
EXTT6=
EXTT7=
EXTT8=
EXTT9=
PLAYORDER=
